<svg xmlns="http://www.w3.org/2000/svg" width="96" height="96" viewBox="0 0 96 96" role="img" aria-labelledby="title desc">
  <title id="title">Prep4Future logo</title>
  <desc id="desc">A clean blue and white P4 monogram logo.</desc>
  <defs>
    <linearGradient id="bg" x1="18" y1="10" x2="78" y2="86" gradientUnits="userSpaceOnUse">
      <stop offset="0" stop-color="#38bdf8"/>
      <stop offset="0.5" stop-color="#2563eb"/>
      <stop offset="1" stop-color="#1d4ed8"/>
    </linearGradient>
    <linearGradient id="accent" x1="32" y1="18" x2="74" y2="78" gradientUnits="userSpaceOnUse">
      <stop offset="0" stop-color="#ffffff"/>
      <stop offset="1" stop-color="#bae6fd"/>
    </linearGradient>
  </defs>

  <rect x="8" y="8" width="80" height="80" rx="22" fill="url(#bg)"/>
  <path d="M19 27c9-9 22-13 36-12 15 2 26 10 33 24-10-8-21-12-34-12H19Z" fill="#ffffff" opacity="0.18"/>

  <path d="M25 69V27h24c11 0 19 7 19 17 0 11-8 18-19 18H38v7H25Zm13-18h10c4 0 7-3 7-7s-3-7-7-7H38v14Z" fill="#ffffff"/>

  <path d="M62 70V60H46l22-33h9v23h6v10h-6v10H62Zm0-20h2v-8l-5 8h3Z" fill="url(#accent)"/>

  <path d="M24 75h48" stroke="#bfdbfe" stroke-width="5" stroke-linecap="round" opacity="0.85"/>
</svg>
